<svg width="29" height="29" viewBox="0 0 29 29" fill="none" xmlns="http://www.w3.org/2000/svg">
<g clip-path="url(#clip0_11_59)">
<path d="M18.7719 5.9558L15.3542 2.53812C14.8823 2.06623 14.1172 2.06623 13.6454 2.53812L10.2277 5.9558C9.75579 6.42768 9.75579 7.19276 10.2277 7.66464L13.6454 11.0823C14.1172 11.5542 14.8823 11.5542 15.3542 11.0823L18.7719 7.66464C19.2438 7.19276 19.2438 6.42768 18.7719 5.9558Z" stroke="#060633" stroke-width="2.5" stroke-linecap="round" stroke-linejoin="round"/>
<path d="M11.0823 13.6456L7.66464 10.2279C7.19276 9.75605 6.42768 9.75605 5.9558 10.2279L2.53812 13.6456C2.06623 14.1175 2.06623 14.8826 2.53812 15.3545L5.9558 18.7721C6.42768 19.244 7.19276 19.244 7.66464 18.7721L11.0823 15.3545C11.5542 14.8826 11.5542 14.1175 11.0823 13.6456Z" stroke="#060633" stroke-width="2.5" stroke-linecap="round" stroke-linejoin="round"/>
<path d="M26.4614 13.6456L23.0438 10.2279C22.5719 9.75605 21.8068 9.75605 21.3349 10.2279L17.9172 13.6456C17.4453 14.1175 17.4453 14.8826 17.9172 15.3545L21.3349 18.7721C21.8068 19.244 22.5719 19.244 23.0438 18.7721L26.4614 15.3545C26.9333 14.8826 26.9333 14.1175 26.4614 13.6456Z" stroke="#060633" stroke-width="2.5" stroke-linecap="round" stroke-linejoin="round"/>
<path d="M18.7719 21.3355L15.3542 17.9178C14.8823 17.4459 14.1172 17.4459 13.6454 17.9178L10.2277 21.3355C9.75579 21.8074 9.75579 22.5725 10.2277 23.0443L13.6454 26.462C14.1172 26.9339 14.8823 26.9339 15.3542 26.462L18.7719 23.0443C19.2438 22.5725 19.2438 21.8074 18.7719 21.3355Z" stroke="#060633" stroke-width="2.5" stroke-linecap="round" stroke-linejoin="round"/>
</g>
<defs>
<clipPath id="clip0_11_59">
<rect width="29" height="29" fill="white"/>
</clipPath>
</defs>
</svg>
